<?xml version="1.0" encoding="UTF-8"?>
<svg version="1.1" xmlns="http://www.w3.org/2000/svg" width="401" height="400">
<path d="M0 0 C-1.52476412 5.26585203 -3.88449035 9.75624224 -6.5625 14.5 C-7.22415161 15.675625 -7.22415161 15.675625 -7.89916992 16.875 C-10.78971648 21.96508878 -13.72902875 27.02414329 -16.8125 32 C-17.49957031 33.11375 -18.18664062 34.2275 -18.89453125 35.375 C-21.14067656 38.17538896 -22.5869122 39.04695629 -26 40 C-25.34 40 -24.68 40 -24 40 C-25.56865187 45.100585 -28.70671804 48.65865766 -32.0625 52.6875 C-32.64596191 53.39648438 -33.22942383 54.10546875 -33.83056641 54.8359375 C-37.78100039 59.60906159 -41.83253736 64.27557251 -46.0234375 68.83984375 C-47.89125498 70.88115416 -49.69947391 72.96188623 -51.5 75.0625 C-58.66042475 83.24115028 -66.52292173 90.21833738 -75 97 C-75.91652344 97.91652344 -76.83304687 98.83304687 -77.77734375 99.77734375 C-82.0813765 102.7458221 -84.84512207 102.40500257 -89.875 101.8125 C-91.050625 101.70711914 -91.050625 101.70711914 -92.25 101.59960938 C-94.16904945 101.42408656 -96.08501452 101.21538255 -98 101 C-93.71 101.66 -89.42 102.32 -85 103 C-85 103.66 -85 104.32 -85 105 C-87.15725021 106.60372554 -89.2976648 108.06353917 -91.5625 109.5 C-92.47612305 110.10521484 -92.47612305 110.10521484 -93.40820312 110.72265625 C-97.52083359 113.35996213 -101.24483893 114.87393869 -106 116 C-106 116.66 -106 117.32 -106 118 C-133.14449585 130.69655063 -162.15310835 136.89098116 -192 139 C-192.68658691 139.07863281 -193.37317383 139.15726563 -194.08056641 139.23828125 C-198.05134898 139.53360525 -200.40033139 139.08648463 -203.40625 136.59375 C-204.4570136 135.58239003 -205.48828841 134.55042505 -206.5 133.5 C-207.03625 132.97535156 -207.5725 132.45070313 -208.125 131.91015625 C-209.43417569 130.6243587 -210.71964444 129.31449837 -212 128 C-210.7997475 130.54107512 -209.66712783 132.41119503 -207.875 134.625 C-206 137 -206 137 -206 139 C-215.4976428 139.33608959 -224.70272789 139.00496814 -234.125 137.6875 C-235.43827271 137.51093872 -235.43827271 137.51093872 -236.77807617 137.33081055 C-244.25134433 136.20906675 -249.9855237 134.16564991 -255.9375 129.3125 C-256.70964844 128.68988281 -257.48179687 128.06726563 -258.27734375 127.42578125 C-258.84582031 126.95527344 -259.41429687 126.48476563 -260 126 C-260 126.99 -260 127.98 -260 129 C-260.33 129.66 -260.66 130.32 -261 131 C-278.61824822 122.67726925 -278.61824822 122.67726925 -286 116 C-286.62132812 115.45859375 -287.24265625 114.9171875 -287.8828125 114.359375 C-296.526291 106.35199665 -300.69590203 96.43916873 -303 85 C-303.0593346 83.00088034 -303.07872682 80.99844992 -303 79 C-303.99644531 79.0928125 -304.99289062 79.185625 -306.01953125 79.28125 C-310.99565798 78.92964929 -313.63321117 77.22467847 -317.6875 74.5 C-322.86254054 70.95531086 -322.86254054 70.95531086 -329 70 C-329.33 68.68 -329.66 67.36 -330 66 C-331.32 65.67 -332.64 65.34 -334 65 C-334 64.34 -334 63.68 -334 63 C-334.8353125 62.86658203 -334.8353125 62.86658203 -335.6875 62.73046875 C-342.64862388 61.09601568 -345.57633809 57.47428841 -349.6640625 51.7890625 C-351.18934057 48.60471003 -351.09027418 47.29478461 -350 44 C-341.95157951 45.28774728 -337.32107033 46.96918964 -331.94921875 53.140625 C-329.22585795 55.73846016 -326.5039165 56.4521156 -322.8828125 57.234375 C-321 58 -321 58 -320.11328125 59.9140625 C-318.78917526 62.39501899 -317.81213558 62.94660211 -315.3046875 64.140625 C-314.58925781 64.48867187 -313.87382812 64.83671875 -313.13671875 65.1953125 C-312.39035156 65.54335937 -311.64398438 65.89140625 -310.875 66.25 C-310.12089844 66.61351562 -309.36679687 66.97703125 -308.58984375 67.3515625 C-306.73178414 68.24531269 -304.86655182 69.12412375 -303 70 C-303 70.99 -303 71.98 -303 73 C-302.34 73 -301.68 73 -301 73 C-300.79375 72.21625 -300.5875 71.4325 -300.375 70.625 C-295.81896609 58.61363787 -287.58669141 48.61464995 -276.5546875 42.05859375 C-274 41 -274 41 -267 40 C-267.66 45.94 -268.32 51.88 -269 58 C-268.47599609 56.06833984 -268.47599609 56.06833984 -267.94140625 54.09765625 C-267.48194678 52.41922266 -267.02230178 50.74083985 -266.5625 49.0625 C-266.33240234 48.21236328 -266.10230469 47.36222656 -265.86523438 46.48632812 C-265.64287109 45.67744141 -265.42050781 44.86855469 -265.19140625 44.03515625 C-264.98717041 43.2862915 -264.78293457 42.53742676 -264.57250977 41.76586914 C-264 40 -264 40 -263 39 C-256.31803338 38.47518916 -250.06065499 40.07310543 -243.5625 41.5 C-242.44939453 41.73847656 -241.33628906 41.97695312 -240.18945312 42.22265625 C-237.45819969 42.80876214 -234.72853132 43.40137252 -232 44 C-232 46.31 -232 48.62 -232 51 C-231.01 49.02 -230.02 47.04 -229 45 C-228.08637695 45.14099121 -227.17275391 45.28198242 -226.23144531 45.42724609 C-206.15828661 48.49321142 -186.29192273 50.91495704 -166 52 C-166.33 55.63 -166.66 59.26 -167 63 C-166.79503906 62.21753906 -166.59007812 61.43507812 -166.37890625 60.62890625 C-166.10949219 59.61699219 -165.84007812 58.60507813 -165.5625 57.5625 C-165.29566406 56.55316406 -165.02882812 55.54382813 -164.75390625 54.50390625 C-164 52 -164 52 -163 51 C-160.14122091 50.76298761 -157.30116703 50.57780818 -154.4375 50.4375 C-153.63119141 50.39431641 -152.82488281 50.35113281 -151.99414062 50.30664062 C-149.99631195 50.20024738 -147.9981793 50.09959112 -146 50 C-146 52.64 -146 55.28 -146 58 C-145.99226562 57.39671875 -145.98453125 56.7934375 -145.9765625 56.171875 C-145.51968548 53.02449996 -145.03368956 51.49374196 -143 49 C-138.0005192 46.82389557 -132.42079206 46.12678696 -127.05883789 45.33789062 C-123.24211632 44.71150113 -119.91003265 43.61627702 -116.35546875 42.09375 C-100.98755221 35.62237224 -85.43494782 29.78197169 -69.75 24.125 C-68.73739105 23.75914795 -67.7247821 23.3932959 -66.68148804 23.01635742 C-55.16873768 18.86179317 -43.63839466 14.79015017 -32 11 C-31.67 11.33 -31.34 11.66 -31 12 C-30.62166016 11.55164795 -30.24332031 11.1032959 -29.85351562 10.64135742 C-27.50559555 8.56218636 -25.29572092 7.79171772 -22.34375 6.73828125 C-20.68666016 6.14370117 -20.68666016 6.14370117 -18.99609375 5.53710938 C-17.84238281 5.13298828 -16.68867188 4.72886719 -15.5 4.3125 C-14.34628906 3.89677734 -13.19257813 3.48105469 -12.00390625 3.05273438 C-3.41213824 0 -3.41213824 0 0 0 Z M-148 62 C-147 64 -147 64 -147 64 Z M-169 68 C-168 71 -168 71 -168 71 Z M-116 114 C-112 115 -112 115 -112 115 Z " fill="#4C9E38" transform="translate(376,186)"/>
<path d="M0 0 C3.54596909 2.23550225 5.07599789 4.26599262 6.25 8.375 C6.90894377 17.30924913 5.54322033 25.73402107 3.84375 34.4765625 C3.59573032 35.80608578 3.34913909 37.13587623 3.10388184 38.46591187 C2.07263418 44.04344798 1.01488419 49.61586665 -0.05029297 55.18701172 C-0.83089829 59.28061376 -1.59610627 63.37681037 -2.34375 67.4765625 C-2.52371017 68.46327312 -2.52371017 68.46327312 -2.70730591 69.4699173 C-4.57474292 79.86742062 -5.46892598 89.83619865 -4.75 100.375 C-0.91476401 99.16348959 -0.91476401 99.16348959 1.5078125 96.15234375 C9.85317334 68.82316659 12.39957444 36.92351042 9.11328125 8.6328125 C9.28483863 4.54484511 10.33297285 3.17655103 13.25 0.375 C18.15699145 -3.01659703 24.57654435 -2.28927557 30.25 -1.625 C36.33957323 0.68846424 40.3958356 4.80830876 43.375 10.5390625 C50.27847729 26.40747211 45.1325659 43.6869481 41.7578125 59.82421875 C39.61251338 70.27030939 37.88340787 80.56419446 38.125 91.25 C38.13402344 92.04535156 38.14304687 92.84070313 38.15234375 93.66015625 C38.17529661 95.56524401 38.21112593 97.47017061 38.25 99.375 C39.24 99.045 40.23 98.715 41.25 98.375 C42.26246253 96.05991799 43.03785931 93.90977477 43.75 91.5 C43.96503174 90.78529541 44.18006348 90.07059082 44.40161133 89.33422852 C46.85183222 80.80406876 48.18407128 72.17228511 49.25 63.375 C49.35441406 62.53710938 49.45882812 61.69921875 49.56640625 60.8359375 C50.73271542 51.0625619 51.3238694 41.36785692 51.23046875 31.52734375 C51.22413925 30.76201828 51.21780975 29.99669281 51.21128845 29.20817566 C51.17415727 25.38260904 51.10794437 21.56032536 51.00073242 17.73608398 C50.97663653 16.32145882 50.95293692 14.90682683 50.9296875 13.4921875 C50.89601074 12.24034668 50.86233398 10.98850586 50.82763672 9.69873047 C51.3289929 5.75337607 52.49009116 4.17508921 55.25 1.375 C60.77687006 -2.02704397 67.04897243 -2.52003658 73.28515625 -1.19140625 C79.96374799 0.88037269 84.39664709 5.03226012 87.76171875 11.1015625 C96.77975743 30.27458457 92.84585707 54.16760482 86.28100586 73.6418457 C80.99787974 88.22384825 73.36589502 100.58056922 62.25 111.375 C61.59902344 112.01179688 60.94804687 112.64859375 60.27734375 113.3046875 C52.6141895 120.32197226 43.02585664 124.01127855 32.609375 123.6640625 C28.67736415 123.18232607 27.03608671 122.22587942 24.25 119.375 C22.29311904 115.47161942 20.7112149 111.48709149 19.25 107.375 C18.8375 107.88289063 18.425 108.39078125 18 108.9140625 C11.93565818 116.14254137 5.56954929 122.63260514 -4.21484375 123.625 C-12.77611767 124.0092367 -20.09454991 122.12387632 -26.5625 116.3125 C-37.41206622 104.23757101 -38.31648245 86.22532607 -38.1875 70.8125 C-38.18678497 70.11465393 -38.18606995 69.41680786 -38.18533325 68.69781494 C-38.15511835 56.62516954 -36.98935193 44.90070215 -35.08569336 32.98217773 C-34.15258612 27.09752285 -33.46076234 22.21173052 -34.75 16.375 C-35.28630991 12.01556655 -35.1384608 9.04833205 -32.875 5.125 C-24.89851251 -2.98442895 -10.15900461 -4.46096512 0 0 Z " fill="#3E4F5C" transform="translate(234.75,85.625)"/>
<path d="M0 0 C4.8674072 4.76642365 6.88518893 9.46004156 7.44140625 16.19140625 C7.43002131 23.28422392 5.88515558 31.06855917 0.828125 36.28515625 C-3.32405114 40.03808468 -6.09886618 41.37863662 -11.6875 41.9375 C-17.944036 41.43294064 -24.20632379 39.5626391 -28.625 34.875 C-31.0111549 30.87241759 -31.32386837 28.23854477 -31.5625 23.625 C-35.0611468 22.54187809 -35.0611468 22.54187809 -38.4375 23.5625 C-39.91855982 26.27777634 -39.90624037 28.50132934 -39.3671875 31.515625 C-36.62891257 38.69362723 -28.19266782 42.02911328 -21.86108398 45.50170898 C-13.28270504 50.31442085 -4.93334937 56.74923326 -1.9921875 66.51953125 C0.08363773 76.69107489 -2.23126571 87.49849734 -7.140625 96.52734375 C-13.70427729 106.35803918 -22.49021263 113.11351469 -34.125 115.875 C-49.67768208 118.7723362 -66.86026498 119.30459173 -80.5625 110.3125 C-85.11468391 106.82249234 -87.38233081 103.23877776 -88.5625 97.625 C-89.37453039 89.23401933 -87.32037682 80.88512734 -82.08984375 74.16015625 C-76.71108718 68.75388686 -70.7793648 66.47750338 -63.25 66.3125 C-56.96046505 66.34054698 -53.99834215 67.18915785 -49.5625 71.625 C-49.48983028 74.66804432 -49.56633691 77.69903966 -49.625 80.7421875 C-49.70304947 83.69600267 -49.70304947 83.69600267 -48.5625 86.625 C-46.18875139 86.95925735 -46.18875139 86.95925735 -43.5625 86.625 C-40.83806936 84.2763529 -40.57903163 82.77653994 -40.1875 79.1875 C-40.58078735 75.45127018 -41.47115469 73.67487858 -43.5625 70.625 C-43.5625 69.965 -43.5625 69.305 -43.5625 68.625 C-44.14499512 68.33761963 -44.72749023 68.05023926 -45.32763672 67.75415039 C-72.71422016 53.91725413 -72.71422016 53.91725413 -77.5625 41.625 C-77.87493657 38.93410484 -78.04037882 36.55442281 -78 33.875 C-77.99242676 33.16980225 -77.98485352 32.46460449 -77.97705078 31.73803711 C-77.78524836 25.62345979 -76.53316557 20.92578137 -73.5625 15.625 C-73.15 14.85800781 -72.7375 14.09101562 -72.3125 13.30078125 C-66.24598687 3.1497124 -56.73256494 -2.98433157 -45.5625 -6.375 C-30.7689383 -9.82740646 -12.32282401 -10.12712083 0 0 Z " fill="#3E4F5C" transform="translate(182.5625,92.375)"/>
<path d="M0 0 C5.66083789 0.08101378 11.14719266 1.50990377 16.65234375 2.71875 C18.32200195 3.07646484 18.32200195 3.07646484 20.02539062 3.44140625 C22.75664406 4.02751214 25.48631243 4.62012252 28.21484375 5.21875 C28.21484375 7.52875 28.21484375 9.83875 28.21484375 12.21875 C29.20484375 10.23875 30.19484375 8.25875 31.21484375 6.21875 C39.46484375 7.53875 47.71484375 8.85875 56.21484375 10.21875 C55.54074407 14.98375997 54.86572155 19.74862201 54.18847656 24.51318359 C53.95911543 26.12866975 53.7302602 27.74422782 53.50195312 29.35986328 C52.18639729 38.6668438 50.82681784 47.95730907 49.21484375 57.21875 C18.12679586 55.87113656 -12.51576779 48.18941059 -40.78515625 35.21875 C-39.00341996 24.15218792 -31.24097185 14.30160605 -22.78515625 7.21875 C-17.5917365 3.86714618 -13.03633717 1.21875 -6.78515625 1.21875 C-7.44515625 7.15875 -8.10515625 13.09875 -8.78515625 19.21875 C-8.26115234 17.28708984 -8.26115234 17.28708984 -7.7265625 15.31640625 C-7.26710303 13.63797266 -6.80745803 11.95958985 -6.34765625 10.28125 C-6.11755859 9.43111328 -5.88746094 8.58097656 -5.65039062 7.70507812 C-5.42802734 6.89619141 -5.20566406 6.08730469 -4.9765625 5.25390625 C-4.77232666 4.5050415 -4.56809082 3.75617676 -4.35766602 2.98461914 C-3.42780243 0.11651537 -3.15086236 0.24747306 0 0 Z " fill="#FBC20B" transform="translate(115.78515625,224.78125)"/>
<path d="M0 0 C-1.52476412 5.26585203 -3.88449035 9.75624224 -6.5625 14.5 C-7.22415161 15.675625 -7.22415161 15.675625 -7.89916992 16.875 C-10.78971648 21.96508878 -13.72902875 27.02414329 -16.8125 32 C-17.49957031 33.11375 -18.18664062 34.2275 -18.89453125 35.375 C-21.14067656 38.17538896 -22.5869122 39.04695629 -26 40 C-25.34 40 -24.68 40 -24 40 C-25.56870929 45.10077173 -28.70690639 48.65831052 -32.0625 52.6875 C-32.64161133 53.39213379 -33.22072266 54.09676758 -33.81738281 54.82275391 C-37.87759038 59.73342554 -42.05395079 64.51064045 -46.390625 69.1796875 C-48.06574717 70.91699923 -48.06574717 70.91699923 -49 73 C-51.4765625 73.81640625 -51.4765625 73.81640625 -54.625 74.5625 C-55.64851563 74.81128906 -56.67203125 75.06007813 -57.7265625 75.31640625 C-69.37527541 77.74901336 -83.4523715 78.76401573 -95 75 C-95.33 74.34 -95.66 73.68 -96 73 C-95.48840332 72.72961914 -94.97680664 72.45923828 -94.44970703 72.18066406 C-74.73435111 61.70152857 -56.83901286 49.38971102 -39 36 C-42.57833207 37.70696815 -45.35114356 39.80816562 -48.4375 42.3125 C-86.16112757 72 -86.16112757 72 -98 72 C-98.25826097 59.90251244 -96.70759437 47.32756594 -90 37 C-89.7006958 36.44707275 -89.4013916 35.89414551 -89.09301758 35.32446289 C-85.51713571 29.36412918 -80.83604127 27.82173183 -74.4375 25.6875 C-73.40351074 25.32285645 -72.36952148 24.95821289 -71.30419922 24.58251953 C-69.06997921 23.79571008 -66.83252139 23.01804784 -64.59228516 22.24853516 C-60.79907832 20.93016763 -57.02960921 19.55649794 -53.26171875 18.16796875 C-51.34371077 17.46537708 -49.42528468 16.76394343 -47.50662231 16.06314087 C-45.64214641 15.38127073 -43.77895187 14.69590022 -41.91577148 14.01049805 C-40.78083252 13.60226807 -39.64589355 13.19403809 -38.4765625 12.7734375 C-37.46674316 12.40653809 -36.45692383 12.03963867 -35.41650391 11.66162109 C-33 11 -33 11 -31 12 C-30.43249023 11.32747192 -30.43249023 11.32747192 -29.85351562 10.64135742 C-27.50559555 8.56218636 -25.29572092 7.79171772 -22.34375 6.73828125 C-21.23902344 6.34189453 -20.13429688 5.94550781 -18.99609375 5.53710938 C-17.84238281 5.13298828 -16.68867188 4.72886719 -15.5 4.3125 C-14.34628906 3.89677734 -13.19257813 3.48105469 -12.00390625 3.05273438 C-3.41213824 0 -3.41213824 0 0 0 Z " fill="#E1243B" transform="translate(376,186)"/>
<path d="M0 0 C1.12792969 0.50789063 2.25585938 1.01578125 3.41796875 1.5390625 C15.36884307 6.80999459 27.34262585 10.80229556 40 14 C40.72993164 14.19045898 41.45986328 14.38091797 42.21191406 14.57714844 C50.66004675 16.74102865 59.00505931 18.05122245 67.69140625 18.74609375 C69.2668237 18.88392591 70.84218145 19.02244195 72.41748047 19.16162109 C75.54989341 19.43756129 78.67720469 19.6441598 81.81689453 19.81494141 C92.46015347 20.60420227 92.46015347 20.60420227 96.67504883 24.42480469 C98.68522231 27.19948255 100.32756317 30.0140594 102 33 C108.94601904 41.66090597 117.13706009 48.61898277 126.1875 55 C127.5796875 55.99 127.5796875 55.99 129 57 C129 57.33 129 57.66 129 58 C126.16724047 58.33896268 123.33395339 58.67129694 120.5 59 C119.31277344 59.14308594 119.31277344 59.14308594 118.1015625 59.2890625 C115.7364652 59.56046711 113.37097581 59.78663212 111 60 C109.93555664 60.12665039 109.93555664 60.12665039 108.84960938 60.25585938 C104.9042804 60.54712527 102.58023117 60.06313725 99.59375 57.59375 C98.5429864 56.58239003 97.51171159 55.55042505 96.5 54.5 C95.96375 53.97535156 95.4275 53.45070313 94.875 52.91015625 C93.56582431 51.6243587 92.28035556 50.31449837 91 49 C92.2002525 51.54107512 93.33287217 53.41119503 95.125 55.625 C97 58 97 58 97 60 C87.5023572 60.33608959 78.29727211 60.00496814 68.875 58.6875 C67.56172729 58.51093872 67.56172729 58.51093872 66.22192383 58.33081055 C58.74865567 57.20906675 53.0144763 55.16564991 47.0625 50.3125 C46.29035156 49.68988281 45.51820312 49.06726563 44.72265625 48.42578125 C44.15417969 47.95527344 43.58570313 47.48476563 43 47 C43 47.99 43 48.98 43 50 C42.505 50.99 42.505 50.99 42 52 C24.38175178 43.67726925 24.38175178 43.67726925 17 37 C16.37867187 36.45859375 15.75734375 35.9171875 15.1171875 35.359375 C6.473709 27.35199665 2.30409797 17.43916873 0 6 C-0.0593346 4.00088034 -0.07872682 1.99844992 0 0 Z " fill="#FBC20B" transform="translate(73,265)"/>
<path d="M0 0 C0.94875 0.886875 1.8975 1.77375 2.875 2.6875 C14.03070744 12.43682552 29.73815397 16.55327246 44 19 C44 19.66 44 20.32 44 21 C30.64176329 27.24817383 17.4147439 32.1389493 3.00292969 35.32714844 C0.9434693 35.78860151 -1.11052003 36.27496957 -3.15917969 36.78222656 C-20.89184591 41.13847059 -20.89184591 41.13847059 -27.75390625 38.625 C-30.90333129 36.32555017 -33.37043035 33.87510176 -36 31 C-37.01857864 30.08209483 -38.05028936 29.17858049 -39.09375 28.2890625 C-47.25322673 21.29702052 -54.35617771 13.78166823 -59 4 C-58.12154419 3.98598145 -58.12154419 3.98598145 -57.2253418 3.97167969 C-40.20771334 3.63616251 -22.29339382 2.92129429 -5.78857422 -1.60668945 C-3.25126834 -2.16464738 -2.15012129 -1.37102876 0 0 Z " fill="#4C9E38" transform="translate(226,283)"/>
<path d="M0 0 C-7.98876828 8.19869212 -15.99205013 15.9203144 -25 23 C-26.36511719 24.36511719 -26.36511719 24.36511719 -27.7578125 25.7578125 C-32.07648722 28.74446225 -34.82518524 28.40735106 -39.875 27.8125 C-40.65875 27.74224609 -41.4425 27.67199219 -42.25 27.59960938 C-44.16904945 27.42408656 -46.08501452 27.21538255 -48 27 C-43.71 27.66 -39.42 28.32 -35 29 C-35 29.66 -35 30.32 -35 31 C-37.26387622 32.61072133 -39.51718311 34.10213005 -41.875 35.5625 C-42.52597656 35.97435547 -43.17695313 36.38621094 -43.84765625 36.81054688 C-52.46306842 42.23736835 -60.22137804 41.77990963 -70.1171875 39.75 C-82.6239043 36.49622002 -93.9237165 31.25399566 -102 21 C-100.91847656 20.68289063 -99.83695313 20.36578125 -98.72265625 20.0390625 C-88.94844128 17.09999311 -79.41623464 13.72560026 -69.9375 9.9375 C-68.90439697 9.5264502 -67.87129395 9.11540039 -66.80688477 8.69189453 C-61.9439338 6.72226027 -57.28302558 4.64731981 -52.66796875 2.1484375 C-48.51819019 0.03240194 -46.01870497 -0.40140848 -41.375 0.6875 C-29.10010542 3.00151046 -18.08097879 2.44444232 -6.01171875 -0.44140625 C-3 -1 -3 -1 0 0 Z " fill="#0A96D8" transform="translate(326,260)"/>
<path d="M0 0 C0 4.59194834 -2.75128486 7.39232766 -5.2734375 11.11328125 C-8.06496855 15.78056958 -9.05800173 19.769509 -9.359375 25.15234375 C-10.25656112 40.25411247 -10.25656112 40.25411247 -14.78125 44.78515625 C-17.87498707 46.3146051 -20.75586255 47.46080416 -24.05615234 48.40966797 C-27.16970034 49.35522927 -30.08691051 50.75350308 -33.0625 52.0625 C-55.92419137 61 -55.92419137 61 -65 61 C-64.5980594 52.12958677 -63.72218277 43.5252454 -61.828125 34.8515625 C-60.958386 31.0699085 -60.958386 31.0699085 -60.546875 27.4609375 C-59.86334625 23.85926679 -59.35020668 21.8361341 -57 19 C-52.00418094 16.67415858 -46.47084129 15.94961153 -41.04296875 15.2902832 C-36.73613079 14.67832929 -33.00378173 13.25787112 -28.984375 11.6015625 C-27.81519531 11.12203125 -26.64601563 10.6425 -25.44140625 10.1484375 C-24.22324219 9.64570313 -23.00507813 9.14296875 -21.75 8.625 C-7.1185311 2.60304496 -7.1185311 2.60304496 0 0 Z " fill="#0A96D8" transform="translate(290,216)"/>
<path d="M0 0 C0.66 0.33 1.32 0.66 2 1 C-48.76527663 45.01209763 -113.40872508 70.8512559 -180.74902344 66.77294922 C-207.75261477 64.72437599 -235.47892175 59.49214317 -260.00317383 47.62768555 C-263.34484373 46.03475094 -265.87617744 45.01641995 -269.59375 44.5234375 C-273.76989053 43.88169113 -276.19529759 42.28078848 -279.6875 39.9375 C-284.41079244 36.64180872 -284.41079244 36.64180872 -290 36 C-290.33 34.68 -290.66 33.36 -291 32 C-292.32 31.67 -293.64 31.34 -295 31 C-295 30.34 -295 29.68 -295 29 C-295.556875 28.91105469 -296.11375 28.82210937 -296.6875 28.73046875 C-303.64862388 27.09601568 -306.57633809 23.47428841 -310.6640625 17.7890625 C-312.18934057 14.60471003 -312.09027418 13.29478461 -311 10 C-302.95157951 11.28774728 -298.32107033 12.96918964 -292.94921875 19.140625 C-290.22585795 21.73846016 -287.5039165 22.4521156 -283.8828125 23.234375 C-282 24 -282 24 -281.11328125 25.9140625 C-279.78917526 28.39501899 -278.81213558 28.94660211 -276.3046875 30.140625 C-275.58925781 30.48867187 -274.87382812 30.83671875 -274.13671875 31.1953125 C-273.39035156 31.54335937 -272.64398438 31.89140625 -271.875 32.25 C-271.12089844 32.61351562 -270.36679687 32.97703125 -269.58984375 33.3515625 C-267.73178414 34.24531269 -265.86655182 35.12412375 -264 36 C-264 36.99 -264 37.98 -264 39 C-263.4445752 39.17813232 -262.88915039 39.35626465 -262.31689453 39.53979492 C-257.79169384 41.01581989 -253.37450159 42.62575314 -248.97851562 44.44799805 C-238.46521165 48.76875123 -227.7354251 51.69523385 -216.69677734 54.34765625 C-214.29779186 54.92796489 -211.90865162 55.53690858 -209.51953125 56.15625 C-182.83141949 62.84755903 -154.18550302 64.13779347 -127 60 C-125.8346875 59.82855469 -124.669375 59.65710938 -123.46875 59.48046875 C-78.45841964 51.62393586 -35.2687117 28.41623103 0 0 Z " fill="#42525A" transform="translate(337,220)"/>
<path d="M0 0 C0.66 0.33 1.32 0.66 2 1 C-15.3977258 16.08334943 -36.37269457 31.81395254 -58 40 C-58 39.01 -58 38.02 -58 37 C-57.43829102 36.70456299 -56.87658203 36.40912598 -56.29785156 36.10473633 C-36.37834371 25.57325616 -17.80832017 13.80393533 0 0 Z " fill="#584856" transform="translate(337,220)"/>
<path d="M0 0 C-1 3 -1 3 -2.71484375 4.11914062 C-3.44832031 4.46138672 -4.18179687 4.80363281 -4.9375 5.15625 C-5.75089844 5.53910156 -6.56429688 5.92195313 -7.40234375 6.31640625 C-8.25957031 6.70699219 -9.11679687 7.09757812 -10 7.5 C-10.82628906 7.89058594 -11.65257812 8.28117187 -12.50390625 8.68359375 C-17.8936356 11.18867922 -23.32077138 13.2509622 -29 15 C-28.82983398 13.15893555 -28.82983398 13.15893555 -28 11 C-25.71508789 9.64379883 -25.71508789 9.64379883 -22.72265625 8.45703125 C-21.65208984 8.02326172 -20.58152344 7.58949219 -19.47851562 7.14257812 C-18.35123047 6.70365234 -17.22394531 6.26472656 -16.0625 5.8125 C-13.8450335 4.92322342 -11.62758469 4.03390273 -9.41015625 3.14453125 C-8.42152588 2.75628174 -7.43289551 2.36803223 -6.41430664 1.96801758 C-1.50592686 0 -1.50592686 0 0 0 Z " fill="#385669" transform="translate(279,258)"/>
</svg>
